<svg enable-background="new 0 0 32 32" height="512" viewBox="0 0 32 32" width="512" xmlns="http://www.w3.org/2000/svg"><g id="BG" fill="#e3f8fa"><path d="m26 32h-20c-3.314 0-6-2.686-6-6v-20c0-3.314 2.686-6 6-6h20c3.314 0 6 2.686 6 6v20c0 3.314-2.686 6-6 6z"/><path d="m26 32h-20c-3.314 0-6-2.686-6-6v-20c0-3.314 2.686-6 6-6h20c3.314 0 6 2.686 6 6v20c0 3.314-2.686 6-6 6z"/></g><g id="Layer_3"><g><g><path d="m17.6 8h-8.867c-.405 0-.733.328-.733.733v3.2c0 .405.328.733.733.733h8.867c.405 0 .733-.328.733-.733v-3.2c0-.405-.328-.733-.733-.733z" fill="#8ce1eb"/></g><g><path d="m8 14.4v8.867c0 .405.328.733.733.733h8.867c.405 0 .733-.328.733-.733v-8.867c0-.405-.328-.733-.733-.733h-8.867c-.405 0-.733.328-.733.733z" fill="#26c6da"/></g><g><path d="m23.267 8h-3.2c-.405 0-.733.328-.733.733v3.933 1 9.6c0 .405.328.733.733.733h3.2c.405.001.733-.327.733-.732v-14.534c0-.405-.328-.733-.733-.733z" fill="#26c6da"/></g></g></g></svg>