<svg width="303" height="250" viewBox="0 0 303 250" fill="none" xmlns="http://www.w3.org/2000/svg">
<g clip-path="url(#clip0)">
<path opacity="0.1" d="M239.65 214.528C273.989 214.528 301.826 208.228 301.826 200.457C301.826 192.686 273.989 186.386 239.65 186.386C205.311 186.386 177.474 192.686 177.474 200.457C177.474 208.228 205.311 214.528 239.65 214.528Z" fill="white"/>
<g opacity="0.5">
<path opacity="0.5" d="M186.393 35.4719C185.555 35.7494 184.528 36.4721 184.022 38.4485C183.031 42.3226 185.334 44.9566 184.575 48.9951C184.365 50.0663 183.964 51.0744 183.399 51.9545C182.472 53.4172 181.466 54.1091 180.489 55.1332C179.25 56.4417 178.363 58.1391 177.933 60.0212C177.462 62.0985 177.423 64.2766 177.818 66.3751C178.165 68.1289 178.757 69.4065 179.274 70.828C179.918 72.6412 180.421 74.5177 180.778 76.4353C180.973 77.3691 181.084 78.3243 181.107 79.2851C181.092 80.5616 180.994 81.835 180.813 83.0941L179.404 94.5415C179.19 96.0382 179.061 97.5498 179.018 99.0663C179.037 100.586 179.188 102.1 179.468 103.584C179.963 106.612 180.495 109.75 181.628 111.353C182.76 112.956 184.69 112.381 185.875 109.137C187.002 106.033 187.029 101.892 188.023 98.5765C189.591 93.3529 192.706 92.6507 194.436 87.6669C196.095 82.8714 195.586 77.021 196.427 71.5679C197.016 67.6596 198.313 64.0973 199.075 60.237C200.169 54.6777 200.06 48.906 199.187 44.6312C198.522 41.1188 197.085 37.868 195.015 35.1979C194.283 34.256 193.497 33.4167 192.577 33.3311C191.597 33.2421 190.741 34.6773 189.773 35.1089C188.655 35.6192 187.532 35.0952 186.393 35.4719Z" fill="#22CA96"/>
<path opacity="0.5" d="M191.697 33.6221C191.697 33.6221 190.038 83.0631 183.06 112.216" stroke="#535461" stroke-width="2" stroke-miterlimit="10"/>
<path opacity="0.5" d="M183.981 38.6816C183.981 38.6816 191.438 46.5873 190.023 61.6312" stroke="#535461" stroke-width="2" stroke-miterlimit="10"/>
<path opacity="0.5" d="M177.724 61.1787C177.724 61.1787 189.964 64.0457 189.055 72.5713" stroke="#535461" stroke-width="2" stroke-miterlimit="10"/>
<path opacity="0.5" d="M199.207 44.5283C199.207 44.5283 194.254 49.5772 189.841 63.8779" stroke="#535461" stroke-width="2" stroke-miterlimit="10"/>
<path opacity="0.5" d="M194.368 87.7494C194.368 87.7494 190.988 90.8322 188.276 80.0391" stroke="#535461" stroke-width="2" stroke-miterlimit="10"/>
<path opacity="0.5" d="M179.783 94.0555C179.783 94.0555 186.676 93.0074 187.311 87.9824" stroke="#535461" stroke-width="2" stroke-miterlimit="10"/>
</g>
<path d="M203.055 2.31245C201.349 2.60703 199.296 3.52844 198.451 6.36803C196.795 11.9376 201.828 16.1541 200.669 21.9738C200.324 23.5753 199.595 25.0301 198.569 26.1698C196.804 28.1941 194.786 29.0779 192.874 30.4514C190.962 31.825 188.976 33.9863 188.079 37.302C187.217 40.491 187.59 44.0122 188.488 46.6429C189.385 49.2735 190.741 51.2362 191.953 53.401C193.426 56.0656 194.657 58.9009 195.627 61.8615C196.116 63.211 196.445 64.6319 196.604 66.085C196.76 67.8661 196.563 69.7809 196.366 71.6545L194.615 88.3495C194.383 90.5691 194.148 92.823 194.28 94.9604C194.43 97.4232 195.057 99.5743 195.674 101.674C197.004 106.202 198.428 110.922 200.937 113.416C203.446 115.91 207.382 115.375 209.503 110.737C211.521 106.322 211.151 100.228 212.872 95.4844C215.584 88.007 221.961 87.4007 225.03 80.3034C227.971 73.4939 226.327 64.7833 227.51 56.8709C228.357 51.202 230.651 46.1325 231.828 40.5527C233.525 32.5135 232.711 24.0015 230.469 17.6031C228.227 11.2046 224.683 6.64205 220.879 3.13795C219.267 1.64794 217.558 0.301793 215.643 0.0551706C213.607 -0.208579 211.98 1.78495 210.024 2.28847C207.747 2.83995 205.37 1.91169 203.055 2.31245Z" fill="#22CA96"/>
<path d="M213.845 0.318359C213.845 0.318359 215.451 72.8974 203.973 114.868" stroke="#535461" stroke-width="2" stroke-miterlimit="10"/>
<path d="M198.387 6.7168C198.387 6.7168 214.625 19.3905 213.233 41.3673" stroke="#535461" stroke-width="2" stroke-miterlimit="10"/>
<path d="M187.729 38.9727C187.729 38.9727 213.357 44.8847 212.345 57.3118" stroke="#535461" stroke-width="2" stroke-miterlimit="10"/>
<path d="M230.498 17.418C230.498 17.418 220.758 24.1693 213.086 44.6184" stroke="#535461" stroke-width="2" stroke-miterlimit="10"/>
<path d="M224.877 80.3987C224.877 80.3987 218.199 84.5091 211.483 68.2012" stroke="#535461" stroke-width="2" stroke-miterlimit="10"/>
<path d="M195.333 87.6644C195.333 87.6644 209.492 87.0718 210.298 79.7588" stroke="#535461" stroke-width="2" stroke-miterlimit="10"/>
<path d="M19.783 198.186C19.783 198.186 22.2482 201.953 18.6446 207.605C15.041 213.257 12.064 218.059 13.273 221.594C13.273 221.594 18.7093 211.068 23.1337 210.921C27.558 210.774 24.6516 204.516 19.783 198.186Z" fill="#22CA96"/>
<path opacity="0.1" d="M19.7831 198.186C20.0031 198.548 20.1774 198.944 20.3008 199.364C24.6193 205.269 26.9168 210.78 22.7689 210.921C18.9035 211.051 14.2674 219.097 13.1554 221.132C13.1921 221.289 13.2363 221.443 13.2878 221.594C13.2878 221.594 18.7241 211.068 23.1484 210.921C27.5728 210.774 24.6516 204.516 19.7831 198.186Z" fill="#22CA96"/>
<path d="M24.3662 202.971C24.3662 204.293 24.2397 205.368 24.0721 205.368C23.9044 205.368 23.7779 204.296 23.7779 202.971C23.7779 201.645 23.9367 202.286 24.0927 202.286C24.2486 202.286 24.3662 201.648 24.3662 202.971Z" fill="#FFD037"/>
<path d="M25.9401 204.546C24.9428 205.18 24.075 205.574 24.0015 205.399C23.9279 205.224 24.6722 204.594 25.6694 203.964C26.6667 203.334 26.2725 203.793 26.349 203.964C26.4254 204.135 26.9344 203.912 25.9401 204.546Z" fill="#FFD037"/>
<path d="M6.76895 198.186C6.76895 198.186 4.30379 201.953 7.90739 207.605C11.511 213.257 14.4821 218.056 13.279 221.591C13.279 221.591 7.84267 211.065 3.41833 210.917C-1.00602 210.77 1.89452 204.516 6.76895 198.186Z" fill="#22CA96"/>
<path opacity="0.1" d="M6.76895 198.186C6.55413 198.549 6.38475 198.945 6.26591 199.364C1.94747 205.269 -0.350014 210.78 3.79781 210.921C7.66323 211.051 12.2994 219.097 13.4113 221.132C13.3747 221.289 13.3305 221.443 13.279 221.594C13.279 221.594 7.84267 211.068 3.41833 210.921C-1.00602 210.774 1.89452 204.516 6.76895 198.186Z" fill="black"/>
<path d="M2.17981 202.971C2.17981 204.293 2.3063 205.368 2.47398 205.368C2.64166 205.368 2.76815 204.296 2.76815 202.971C2.76815 201.645 2.6093 202.286 2.45339 202.286C2.29748 202.286 2.17981 201.648 2.17981 202.971Z" fill="#FFD037"/>
<path d="M0.606114 204.546C1.60336 205.18 2.47116 205.574 2.54471 205.399C2.61825 205.224 1.87399 204.594 0.876752 203.964C-0.120491 203.334 0.2737 203.793 0.197216 203.964C0.120731 204.135 -0.388187 203.912 0.606114 204.546Z" fill="#FFD037"/>
<path d="M2.96527 221.101C2.96527 221.101 9.85772 220.854 11.9346 219.131C14.0114 217.408 22.5248 215.363 23.0513 218.103C23.5779 220.844 33.4091 231.842 25.6283 231.914C17.8474 231.986 7.54847 230.503 5.47456 229.034C3.40064 227.564 2.96527 221.101 2.96527 221.101Z" fill="#A8A8A8"/>
<path opacity="0.2" d="M25.7665 230.963C17.9857 231.035 7.68673 229.551 5.61282 228.082C4.03312 226.962 3.40359 222.944 3.19472 221.091H2.96527C2.96527 221.091 3.40065 227.565 5.47456 229.034C7.54847 230.504 17.8474 231.99 25.6283 231.915C27.8758 231.894 28.6494 230.963 28.6082 229.586C28.2964 230.428 27.4404 230.949 25.7665 230.963Z" fill="black"/>
<path d="M288.983 196.627C289.522 196.115 289.915 195.425 290.109 194.647C290.256 193.859 289.968 192.917 289.321 192.63C288.597 192.308 287.824 192.89 287.238 193.482C286.653 194.075 285.979 194.746 285.211 194.62C285.606 194.203 285.901 193.675 286.068 193.086C286.235 192.497 286.268 191.868 286.165 191.259C286.131 191.007 286.04 190.771 285.9 190.574C285.497 190.074 284.77 190.29 284.288 190.684C282.758 191.938 282.331 194.356 282.323 196.534C282.17 195.75 282.299 194.931 282.293 194.137C282.287 193.342 282.099 192.424 281.517 192.006C281.155 191.78 280.75 191.668 280.34 191.681C279.652 191.65 278.887 191.732 278.416 192.318C277.828 193.044 277.984 194.267 278.493 195.058C279.001 195.849 279.772 196.36 280.484 196.915C281.055 197.31 281.541 197.849 281.908 198.494C281.951 198.583 281.986 198.677 282.014 198.775H286.323C287.289 198.202 288.184 197.479 288.983 196.627Z" fill="#22CA96"/>
<path opacity="0.1" d="M43.1639 164.525C52.5244 178.384 48.8884 198.631 42.9403 214.843C40.9487 220.272 38.6954 226.016 39.5367 231.836C40.5634 238.953 46.0085 244.167 51.7507 246.907C62.1938 251.935 74.6961 250.737 84.2891 243.787C92.5818 237.779 98.5211 228.01 106.955 222.276C121.075 212.685 139.037 216.305 154.364 222.913C165.207 227.588 177.062 233.672 187.838 228.784C195.418 225.358 200.661 216.977 203.517 208.105C204.897 203.82 205.897 199.199 208.518 195.774C210.083 193.756 212.124 192.321 214.219 191.116C233.34 180.083 257.462 185.978 276.019 173.756C288.553 165.494 296.578 149.906 300.141 133.652C303.703 117.399 303.279 100.355 302.376 83.6189C301.735 71.7228 300.585 59.0251 294.057 49.8419C287.153 40.1311 275.301 36.5174 264.59 38.3636C253.879 40.2099 244.166 46.8207 235.635 54.5688C224.959 64.2522 215.06 76.3127 201.952 80.2381C193.027 82.9098 183.637 81.4472 174.429 80.9437C159.038 80.0977 143.644 81.9713 128.338 84.0265C113.686 85.9995 98.9212 88.1711 84.9686 93.7201C75.0903 97.649 67.1712 104.777 57.843 109.757C51.7625 113.005 45.1319 113.902 39.3779 118.036C32.2854 123.13 25.7871 131.991 27.611 142.356C29.3231 152.225 38.1924 157.171 43.1639 164.525Z" fill="white"/>
<path opacity="0.1" d="M162.486 164.518C231.968 164.518 288.294 158.218 288.294 150.447C288.294 142.676 231.968 136.376 162.486 136.376C93.0038 136.376 36.6774 142.676 36.6774 150.447C36.6774 158.218 93.0038 164.518 162.486 164.518Z" fill="white"/>
<path opacity="0.1" d="M65.7945 245.698C100.133 245.698 127.971 239.398 127.971 231.627C127.971 223.856 100.133 217.556 65.7945 217.556C31.4555 217.556 3.61829 223.856 3.61829 231.627C3.61829 239.398 31.4555 245.698 65.7945 245.698Z" fill="white"/>
<path d="M129.353 146.059L128.368 147.727C128.368 147.727 129.442 149.395 129.544 149.604C129.647 149.813 132.677 149.501 132.677 149.501L132.945 148.251L132.498 146.792L129.353 146.059Z" fill="#E6E6F0"/>
<path d="M96.2207 145.12L94.2498 145.535L95.5029 148.354L96.8473 149.186L98.1005 150.227L98.4594 149.083L97.5621 146.891L96.2207 145.12Z" fill="#FDC2CC"/>
<path d="M128.459 118.009C128.459 118.009 138.937 120.928 140.905 124.175C140.905 124.175 142.697 125.949 140.905 129.179C139.114 132.409 136.608 139.712 136.608 139.712C136.608 139.712 134.816 146.802 134.101 147.323C133.386 147.844 129.265 148.262 128.906 146.296C128.906 146.296 131.233 142.021 131.233 140.038C131.233 138.054 135.084 128.672 135.084 128.672C135.084 128.672 126.309 127.525 123.532 128.254C120.755 128.984 124.788 116.862 128.459 118.009Z" fill="#565171"/>
<path opacity="0.1" d="M128.459 118.009C128.459 118.009 138.937 120.928 140.905 124.175C140.905 124.175 142.697 125.949 140.905 129.179C139.114 132.409 136.608 139.712 136.608 139.712C136.608 139.712 134.816 146.802 134.101 147.323C133.386 147.844 129.265 148.262 128.906 146.296C128.906 146.296 131.233 142.021 131.233 140.038C131.233 138.054 135.084 128.672 135.084 128.672C135.084 128.672 126.309 127.525 123.532 128.254C120.755 128.984 124.788 116.862 128.459 118.009Z" fill="black"/>
<path d="M126.309 120.824C126.288 121.43 126.232 122.112 126.153 122.845C125.579 128.154 123.711 136.049 123.711 136.049C123.711 136.049 121.831 140.742 121.293 143.767C120.755 146.791 117.083 147.534 117.083 147.534C117.083 147.534 107.052 148.905 104.993 148.37C102.934 147.836 99.6978 149.936 98.0975 149.621C96.4972 149.305 95.5 144.928 95.5 144.928C98.2775 144.947 101.026 144.272 103.56 142.948C107.679 140.759 113.592 141.801 113.592 141.801C114.033 141.651 114.443 141.399 114.797 141.058C115.151 140.718 115.442 140.297 115.651 139.821C116.277 138.255 116.277 128.767 116.098 128.14C114.921 124.03 115.018 121.392 115.357 119.855C115.47 119.183 115.725 118.554 116.098 118.025L126.309 120.824Z" fill="#565171"/>
<path opacity="0.1" d="M126.309 120.824C126.288 121.431 126.232 122.112 126.153 122.845C125.252 122.928 122.728 123.006 120.858 121.66C119.092 120.4 116.524 119.971 115.368 119.838C115.482 119.166 115.736 118.538 116.11 118.009L126.309 120.824Z" fill="black"/>
<path d="M127.547 119.519C127.129 120.889 126.488 122.496 126.488 122.496C126.488 122.496 123.176 123.016 120.846 121.348C118.516 119.68 114.756 119.471 114.756 119.471C115.365 119.036 115.777 117.714 116.033 116.556C116.176 115.901 116.288 115.238 116.369 114.569C116.369 114.569 127.382 117.176 127.841 117.594C128.012 117.758 127.829 118.587 127.547 119.519Z" fill="#E6E6F0"/>
<path d="M147.174 75.5688L133.816 84.9576L132.489 85.8893V81.3027L133.41 80.789L144.668 74.5241C144.668 74.5241 145.206 63.1589 146.639 64.9332C148.071 66.7075 147.174 75.5688 147.174 75.5688Z" fill="#FDC2CC"/>
<path opacity="0.1" d="M133.816 84.9577L132.489 85.8894V81.3029L133.41 80.7891C133.471 82.1871 133.606 83.5793 133.816 84.9577Z" fill="black"/>
<path d="M123.535 86.6364L133.116 80.1729C133.116 80.1729 133.295 86.4309 134.369 87.366C134.369 87.366 130.43 88.7361 128.906 91.6408L123.535 86.6364Z" fill="#B45181"/>
<path opacity="0.1" d="M123.535 86.6364L133.116 80.1729C133.116 80.1729 133.295 86.4309 134.369 87.366C134.369 87.366 130.43 88.7361 128.906 91.6408L123.535 86.6364Z" fill="black"/>
<path d="M147.089 92.1471C147.089 92.1471 142.532 94.4592 139.514 95.3086C138.835 95.5472 138.124 95.6423 137.417 95.5895C135.357 95.1716 137.955 92.1642 137.955 92.1642L139.037 91.969L144.85 90.914C144.85 90.914 145.477 80.4873 146.551 81.3231C147.624 82.1589 147.089 92.1471 147.089 92.1471Z" fill="#FDC2CC"/>
<path d="M127.832 82.7623C127.832 82.7623 123.982 86.0986 125.414 90.2706C126.847 94.4427 117.981 87.7667 117.981 87.7667C117.981 87.7667 120.846 82.7623 121.472 79.0082C122.099 75.254 127.832 82.7623 127.832 82.7623Z" fill="#FDC2CC"/>
<path opacity="0.1" d="M127.547 119.519C125.882 118.789 124.141 118.316 122.37 118.115C119.781 117.772 117.41 117.193 116.036 116.556C116.179 115.901 116.291 115.238 116.371 114.569C116.371 114.569 127.385 117.176 127.844 117.594C128.012 117.758 127.829 118.587 127.547 119.519Z" fill="black"/>
<path opacity="0.1" d="M139.511 95.3094C138.832 95.5479 138.122 95.643 137.414 95.5903C135.354 95.1724 137.952 92.165 137.952 92.165L139.034 91.9697C139.488 92.7815 139.949 94.0489 139.511 95.3094Z" fill="black"/>
<path d="M121.564 84.6395C121.564 84.6395 118.072 84.5368 116.819 86.2049C115.565 87.873 115.833 92.3705 115.833 92.3705C115.833 92.3705 115.571 101.376 117.533 106.414C117.598 106.577 117.606 106.763 117.554 106.931C117.533 106.993 117.533 106.955 117.533 106.955C117.533 106.955 116.28 113.525 115.027 114.673C113.774 115.82 117.713 117.177 122.381 117.8C127.05 118.423 128.918 119.989 128.918 119.989C128.918 119.989 129.724 118.961 129.8 116.653C129.877 114.344 128.556 97.5701 128.556 97.5701C128.556 97.5701 133.481 99.0293 136.437 97.2584C136.437 97.2584 137.781 98.0942 139.034 95.7992C140.288 93.5043 138.152 91.0038 138.152 91.0038C138.152 91.0038 136.181 93.2987 130.718 90.2742C125.255 87.2496 123.261 84.5368 121.564 84.6395Z" fill="#B45181"/>
<path d="M94.7881 145.329H93.7144V147.103L94.7881 149.919C94.7881 149.919 96.2207 150.231 96.3119 150.231C96.4031 150.231 97.5651 149.919 97.5651 149.919L97.924 149.189C97.924 149.189 93.982 147.412 94.7881 145.329Z" fill="#E6E6F0"/>
<path d="M128.459 146.998L126.847 151.17L133.654 154.938L139.029 155.147C139.029 155.147 139.476 153.688 137.684 152.958L136.252 152.646C136.252 152.646 134.372 148.683 134.192 146.823C134.192 146.823 132.401 147.241 132.133 148.803C132.13 148.769 129.624 150.228 128.459 146.998Z" fill="#B45181"/>
<path d="M93.982 144.911L93.4349 145.432L91.0286 147.727L96.5796 156.29C96.5796 156.29 99.7125 157.855 101.148 156.29C101.148 156.29 102.031 155.262 100.074 154.413C100.074 154.413 98.5505 154.725 98.5505 152.954C98.5505 151.183 98.9094 149.306 99.433 148.888C99.433 148.888 98.0887 148.367 97.7327 148.785C97.4588 149.137 97.2182 149.521 97.015 149.933C97.015 149.933 93.8026 148.456 93.982 144.911Z" fill="#B45181"/>
<path opacity="0.1" d="M121.296 79.2172C121.205 79.7462 121.085 80.2679 120.937 80.7791C121.402 82.082 122.285 83.1225 123.399 83.6796C124.512 84.2367 125.768 84.2664 126.9 83.7626C127.136 83.479 127.389 83.2146 127.656 82.9713C127.656 82.9713 121.922 75.463 121.296 79.2172Z" fill="black"/>
<path opacity="0.1" d="M120.802 93.1445C120.802 93.1445 123.579 97.4193 127.609 97.5255Z" fill="black"/>
<g opacity="0.1">
<path opacity="0.1" d="M137.399 97.3297C137.342 97.3114 137.287 97.2873 137.234 97.2578C137.148 97.3103 137.06 97.3594 136.969 97.4051C137.115 97.4018 137.259 97.3765 137.399 97.3297Z" fill="black"/>
<path opacity="0.1" d="M138.352 91.4316C138.255 91.2859 138.151 91.1464 138.04 91.0137C138.04 91.0137 137.452 91.6987 135.999 91.8289C136.799 91.9215 137.607 91.7851 138.352 91.4316V91.4316Z" fill="black"/>
<path opacity="0.1" d="M129.353 97.5703L129.371 97.793C130.552 98.0477 131.753 98.1625 132.954 98.1355C131.741 98.084 130.535 97.8947 129.353 97.5703V97.5703Z" fill="black"/>
<path opacity="0.1" d="M123.176 117.807C118.519 117.18 114.58 115.827 115.821 114.679C117.063 113.532 118.328 106.962 118.328 106.962C118.328 106.962 118.328 107 118.348 106.938C118.4 106.769 118.392 106.584 118.328 106.421C116.366 101.369 116.627 92.3772 116.627 92.3772C116.627 92.3772 116.36 87.8934 117.613 86.2116C118.545 84.9682 120.719 84.7113 121.77 84.6599C121.672 84.6511 121.573 84.6511 121.475 84.6599C121.475 84.6599 117.984 84.5572 116.73 86.2253C115.477 87.8934 115.745 92.3909 115.745 92.3909C115.745 92.3909 115.483 101.396 117.445 106.435C117.51 106.597 117.517 106.783 117.466 106.952C117.445 107.014 117.445 106.976 117.445 106.976C117.445 106.976 116.201 113.525 114.936 114.673C113.671 115.82 117.622 117.176 122.29 117.8C126.959 118.423 128.827 119.989 128.827 119.989C128.92 119.858 129.003 119.717 129.074 119.567C128.165 119.057 126.294 118.218 123.176 117.807Z" fill="black"/>
</g>
<path d="M125.414 83.91C127.986 83.91 130.071 81.4823 130.071 78.4877C130.071 75.4931 127.986 73.0654 125.414 73.0654C122.842 73.0654 120.758 75.4931 120.758 78.4877C120.758 81.4823 122.842 83.91 125.414 83.91Z" fill="#FDC2CC"/>
<path opacity="0.1" d="M132.042 76.0629C131.657 77.1864 130.506 77.6111 129.497 77.9023C128.056 78.3133 126.503 78.7175 125.123 78.0804C124.944 77.9636 124.738 77.9167 124.535 77.9468C124.371 78.0233 124.234 78.1622 124.146 78.3407C122.626 80.8617 122.873 84.222 122.478 87.2705C122.355 88.2193 122.146 89.199 121.596 89.908C120.525 91.2781 118.504 91.2267 117.519 92.6825C116.869 93.6416 116.863 94.974 116.869 96.1969C116.869 97.5008 116.859 98.8058 116.839 100.112C116.822 100.968 116.786 101.855 116.454 102.616C115.889 103.904 114.63 104.517 113.468 105.014C112.744 105.329 111.997 105.647 111.22 105.562C110.444 105.476 109.667 104.877 109.567 103.972C109.429 102.746 110.514 101.89 111.262 101.006C112.456 99.5982 112.947 97.5499 112.991 95.57C113.033 94.7704 112.933 93.9693 112.697 93.2168C112.424 92.4393 111.935 91.7851 111.641 91.0178C110.735 88.6543 111.853 85.9209 113.191 83.852C114.53 81.7832 116.174 79.7656 116.46 77.2001C116.485 76.6449 116.553 76.0935 116.663 75.5525C116.869 74.8058 117.357 72.7437 117.895 72.2711C118.757 71.5151 119.769 71.025 120.837 70.8461C121.664 70.7057 122.508 70.7571 123.329 70.5721C124.288 70.3563 125.179 69.8254 126.138 69.6267C128.212 69.1985 130.462 72.0039 131.371 74.2166C131.621 74.8948 132.277 75.3744 132.042 76.0629Z" fill="black"/>
<path d="M132.042 75.8539C131.657 76.9774 130.506 77.4021 129.497 77.6933C128.056 78.1043 126.503 78.5085 125.123 77.8714C124.944 77.7546 124.738 77.7078 124.535 77.7378C124.371 77.8143 124.234 77.9532 124.146 78.1317C122.626 80.6528 122.873 84.013 122.478 87.0615C122.355 88.0103 122.146 88.99 121.596 89.699C120.525 91.0691 118.504 91.0178 117.519 92.4735C116.869 93.4326 116.863 94.7651 116.869 95.9879C116.869 97.2918 116.859 98.5968 116.839 99.903C116.822 100.759 116.786 101.647 116.454 102.407C115.889 103.695 114.63 104.308 113.468 104.805C112.744 105.12 111.997 105.438 111.22 105.353C110.444 105.267 109.667 104.668 109.567 103.763C109.429 102.537 110.514 101.681 111.262 100.797C112.456 99.3892 112.947 97.3409 112.991 95.3611C113.033 94.5615 112.933 93.7604 112.697 93.0079C112.424 92.2303 111.935 91.5761 111.641 90.8088C110.735 88.4453 111.853 85.712 113.191 83.6431C114.53 81.5742 116.174 79.5567 116.46 76.9911C116.485 76.4359 116.553 75.8845 116.663 75.3435C116.869 74.5968 117.357 72.5348 117.895 72.0621C118.757 71.3061 119.769 70.816 120.837 70.6371C121.664 70.4967 122.508 70.5481 123.329 70.3631C124.288 70.1473 125.179 69.6164 126.138 69.4177C128.212 68.9896 130.462 71.7949 131.371 74.0076C131.621 74.6859 132.277 75.1654 132.042 75.8539Z" fill="#F569BC"/>
<path d="M147.089 65.4307H224.506V155.568H147.089V65.4307Z" fill="#F7DF1E"/>
<path d="M167.449 140.756L173.373 136.581C174.517 138.941 175.556 140.938 178.05 140.938C180.442 140.938 181.948 139.849 181.948 135.615V106.812H189.223V135.732C189.223 144.504 184.811 148.498 178.362 148.498C172.544 148.498 169.166 144.987 167.451 140.753L167.449 140.756ZM193.174 139.845L199.096 135.851C200.655 138.818 202.682 140.989 206.267 140.989C209.283 140.989 211.204 139.236 211.204 136.814C211.204 133.909 209.23 132.882 205.909 131.186L204.091 130.278C198.843 127.679 195.36 124.411 195.36 117.512C195.36 111.158 199.516 106.318 206.012 106.318C210.636 106.318 213.954 108.195 216.352 113.094L210.689 117.331C209.442 114.728 208.091 113.7 206.012 113.7C203.882 113.7 202.529 115.272 202.529 117.331C202.529 119.872 203.879 120.9 206.997 122.469L208.815 123.376C214.993 126.459 218.481 129.607 218.481 136.687C218.481 144.312 213.336 148.487 206.42 148.487C199.654 148.487 195.301 144.72 193.183 139.835" fill="black"/>
<path d="M258.465 205.591C258.465 205.591 255.444 205.838 253.579 202.07C253.215 201.311 252.784 200.598 252.294 199.943C251.692 198.793 251.379 197.47 251.39 196.124C251.493 193.332 248.993 178.041 248.993 178.041C248.993 178.041 249.305 172.218 246.804 168.577C245.157 166.179 242.789 159.329 241.362 154.903C241.458 155.003 241.573 155.073 241.698 155.109L241.639 154.729H241.698L240.959 150.005C239.884 148.566 238.978 146.967 238.265 145.251L238.432 145.21L240.644 144.668C240.644 144.668 244.239 138.719 244.469 135.794H244.763H245.178C248.505 135.772 251.831 135.975 255.138 136.4V136.4C255.138 136.383 255.115 136.307 255.085 136.187C254.945 135.599 254.837 135 254.762 134.396H254.968L257.027 134.238C257.027 134.238 264.113 125.017 261.507 123.319C258.901 121.62 256.191 130.964 256.191 130.964L255.309 131.149L255.071 131.2C255.094 131.159 255.118 131.121 255.144 131.084C255.171 131.046 243.577 130.481 241.792 127.199C241.792 127.199 236.685 122.466 236.476 119.321C236.438 118.669 236.247 118.041 235.923 117.507C235.6 116.973 235.156 116.553 234.64 116.293C234.009 115.943 233.311 115.79 232.613 115.851L230.222 116.043L230.39 116.386H230.322C230.172 115.985 230.046 115.573 229.945 115.153H229.995C229.978 115.067 229.963 114.981 229.948 114.896C230.681 114.694 231.372 114.324 231.98 113.806C232.588 113.288 233.1 112.634 233.486 111.881C233.873 111.129 234.126 110.293 234.23 109.425C234.334 108.557 234.288 107.673 234.093 106.826C234.327 106.861 234.564 106.852 234.796 106.802C235.679 106.593 236.299 105.551 236.323 104.51C236.323 104.442 236.323 104.373 236.323 104.308C236.323 104.308 236.323 104.281 236.323 104.267C236.314 103.744 236.205 103.229 236.004 102.761C235.803 102.293 235.515 101.883 235.161 101.561C234.684 101.098 234.114 100.77 233.69 100.256C233.175 99.6427 232.893 98.8207 232.493 98.0979C231.823 96.9024 230.829 96.0018 229.669 95.5392C228.807 95.1967 227.748 95.1624 227.086 95.8817C226.745 96.2551 226.548 96.7963 226.165 97.1114C225.615 97.5704 224.868 97.4334 224.194 97.5259C223.584 97.6352 223.007 97.9176 222.513 98.3483C222.019 98.779 221.623 99.3448 221.361 99.9955C221.031 100.81 220.872 101.705 220.897 102.606C220.889 103.223 220.953 103.84 221.085 104.438C221.214 105.034 221.406 105.61 221.547 106.206C221.841 107.439 221.909 108.737 222.247 109.953C222.474 110.855 222.928 111.658 223.55 112.258L223.45 112.758C223.385 112.758 221.762 113.18 220.641 116.033C219.758 118.283 216.755 120.606 215.434 121.544C215.188 121.72 214.974 121.951 214.805 122.224C214.636 122.496 214.516 122.806 214.451 123.134C214.324 123.795 214.268 124.473 214.284 125.151C214.26 126.614 214.522 128.638 215.531 131.204C217.823 137.027 219.49 139.575 219.49 139.575C219.49 139.575 219.617 141.36 219.626 143.24C219.626 144.641 219.538 146.035 219.282 146.734C219.064 147.323 218.987 148.827 219.005 150.546C219.005 153.841 219.282 158.14 219.282 158.14C219.282 158.14 220.079 158.318 221.311 158.527L222.079 174.256C222.176 176.161 221.65 178.038 220.608 179.511C220.07 180.285 219.448 180.976 218.758 181.566C216.569 183.385 211.88 202.56 211.88 202.56C211.88 202.56 212.11 202.56 212.486 202.611L211.045 207.294C211.045 207.294 216.805 212.431 220.308 211.027C220.688 210.883 221.086 210.818 221.485 210.835C222.176 210.835 223.656 210.198 222.832 209.359C221.242 207.653 219.742 205.837 218.34 203.92C218.453 203.984 218.561 204.058 218.664 204.142V204.105L218.714 204.142C218.714 204.142 218.714 203.954 218.752 203.646L218.702 203.625C218.808 202.364 219.143 199.172 219.808 198.802C220.641 198.316 226.792 184.118 226.792 184.118L232.94 165.673C232.94 165.673 237.838 175.503 242.006 177.199V181.309C242.006 181.309 244.298 193.445 245.133 194.777C245.969 196.11 245.133 201.45 245.133 201.45C245.298 201.67 245.487 201.863 245.695 202.025L245.028 206.423C245.028 206.423 249.823 206.18 257.951 209.092C257.945 209.109 261.072 207.533 258.465 205.591ZM239.291 142.127L238.276 142.421L238.076 142.48C238.056 142.332 238.041 142.247 238.041 142.247C237.808 142.369 237.558 142.44 237.303 142.456C236.943 141.129 236.735 139.753 236.685 138.362C236.343 136.699 236.136 135.002 236.064 133.293C236.064 132.409 236.191 131.639 236.476 131.204L236.814 131.234L237.05 131.495L237.067 131.512L237.188 131.639L237.314 131.769L237.335 131.789L237.47 131.93L237.494 131.954L237.632 132.091L237.788 132.241L237.823 132.276L237.988 132.43L238.15 132.581L238.188 132.615L238.367 132.772L238.406 132.803L238.576 132.95L238.606 132.974L238.8 133.135L238.847 133.173L239.053 133.338H239.071L239.271 133.492L239.318 133.529L239.532 133.69L239.579 133.725L239.78 133.868L239.818 133.896L240.047 134.053L240.103 134.091L240.341 134.245H240.359L240.591 134.389L240.647 134.423L240.894 134.567L240.944 134.595L241.174 134.718L241.218 134.742L241.477 134.872L241.539 134.903L241.806 135.03C240.144 137.16 239.291 142.127 239.291 142.127Z" fill="url(#paint0_linear)"/>
<path d="M213.586 199.727L211.654 206.005C211.654 206.005 216.949 210.732 220.391 209.752C220.909 209.602 221.438 209.503 221.97 209.454C222.682 209.393 223.909 208.787 223.147 208.019C220.705 205.532 217.449 200.912 217.449 200.912L213.586 199.727Z" fill="#4F4D59"/>
<path d="M245.736 199.135L244.822 205.177C244.822 205.177 249.502 204.94 257.439 207.783C257.439 207.783 260.492 206.242 257.948 204.358C257.948 204.358 255.006 204.595 253.167 200.933C251.329 197.271 250.226 197.734 250.226 197.734L245.736 199.135Z" fill="#4F4D59"/>
<path d="M221.514 155.304L222.397 173.691C222.494 175.65 221.936 177.577 220.841 179.069C220.346 179.754 219.782 180.367 219.161 180.894C217.025 182.672 212.445 201.388 212.445 201.388C212.445 201.388 217.634 201.731 219.058 202.93C219.058 202.93 219.352 198.192 220.176 197.716C221 197.24 226.992 183.381 226.992 183.381L232.996 165.374C232.996 165.374 237.776 174.965 241.848 176.63V180.658C241.848 180.658 244.086 192.506 244.901 193.808C245.716 195.11 244.901 200.316 244.901 200.316C244.901 200.316 247.254 203.741 252.632 200.08C252.632 200.08 250.902 197.829 251.005 195.103C251.108 192.376 248.652 177.452 248.652 177.452C248.652 177.452 248.946 171.766 246.516 168.204C244.086 164.641 240.047 151.033 240.047 151.033L237.247 144.018L221.514 155.304Z" fill="#C48C96"/>
<g opacity="0.1">
<path opacity="0.1" d="M213.434 201.384C213.434 201.384 218.011 182.668 220.149 180.891C220.805 180.331 221.398 179.677 221.914 178.945C222.959 177.474 223.484 175.596 223.385 173.691L222.488 155.3L237.491 144.531L237.288 144.021L221.573 155.303L222.47 173.694C222.569 175.599 222.044 177.477 221 178.948C220.484 179.681 219.891 180.334 219.235 180.894C217.102 182.668 212.519 201.384 212.519 201.384C212.519 201.384 217.708 201.727 219.132 202.926C219.132 202.926 219.132 202.741 219.17 202.443C217.167 201.641 213.434 201.384 213.434 201.384Z" fill="black"/>
<path opacity="0.1" d="M245.889 200.319C245.889 200.319 246.704 195.105 245.889 193.811C245.075 192.516 242.836 180.661 242.836 180.661V176.626C238.768 174.968 233.984 165.37 233.984 165.37L233.631 166.446C235.011 168.994 238.691 175.317 241.924 176.633V180.661C241.924 180.661 244.163 192.509 244.978 193.811C245.792 195.112 244.978 200.319 244.978 200.319C244.978 200.319 246.113 201.983 248.619 201.757C246.746 201.576 245.889 200.319 245.889 200.319Z" fill="black"/>
</g>
<path d="M256.521 134.691L254.523 134.845L253.47 134.927V131.964L254.853 131.673L255.709 131.491C255.709 131.491 258.357 122.37 260.898 124.028C263.44 125.685 256.521 134.691 256.521 134.691Z" fill="#714B4F"/>
<path d="M224.474 110.271C224.474 110.271 223.15 116.194 222.744 119.862C222.338 123.531 232.205 120.575 232.205 120.575C232.205 120.575 228.439 115.245 230.578 112.402L224.474 110.271Z" fill="#714B4F"/>
<path d="M235.155 134.933L235.358 137.183L232.205 136.947L229.051 133.748L225.897 123.438L223.868 119.762L222.341 117.512L222.953 114.771C222.953 114.771 223.232 115.056 223.703 115.474C225.253 116.844 228.886 119.724 231.543 118.93C231.665 118.894 231.786 118.849 231.904 118.796L235.873 126.733L235.155 134.933Z" fill="#E6E6F0"/>
<path opacity="0.1" d="M223.762 114.077C223.762 114.077 222.135 114.419 221.014 117.276C220.155 119.461 217.249 121.729 215.952 122.643C215.704 122.819 215.489 123.051 215.32 123.325C215.151 123.6 215.03 123.91 214.966 124.24C214.704 125.589 214.604 128.107 216.028 131.727C218.267 137.413 219.893 139.9 219.893 139.9C219.893 139.9 220.299 145.586 219.69 147.244C219.082 148.902 219.69 158.023 219.69 158.023C219.69 158.023 230.372 160.394 233.934 158.023C237.497 155.653 236.988 146.532 236.988 146.532C236.988 146.532 240.344 154.824 241.565 155.061L240.853 150.44C240.853 150.44 236.885 145.463 236.682 139.068C236.682 139.068 235.461 133.262 236.479 131.724C236.479 131.724 253.673 133.382 254.691 131.96C254.691 131.96 243.398 131.368 241.668 128.168C241.668 128.168 236.682 123.548 236.479 120.468C236.449 119.89 236.294 119.33 236.026 118.842C235.759 118.353 235.39 117.952 234.952 117.677C234.26 117.218 233.466 117.012 232.672 117.084L230.375 117.269C230.375 117.269 234.343 125.442 234.14 126.517C233.937 127.593 234.343 136.232 234.343 136.232C234.343 136.232 229.751 124.74 227.73 123.438C225.709 122.136 223.353 116.779 223.353 116.779L223.759 114.073" fill="black"/>
<path opacity="0.1" d="M235.155 134.933L235.358 137.183L232.205 136.947L229.051 133.748L225.897 123.438L223.868 119.762L222.341 117.512L222.953 114.771C222.953 114.771 223.232 115.056 223.703 115.474L223.562 116.409C223.562 116.409 225.915 121.759 227.936 123.064C229.957 124.369 234.549 135.858 234.549 135.858C234.549 135.858 234.143 127.209 234.346 126.144C234.484 125.421 232.702 121.427 231.543 118.93C231.665 118.894 231.786 118.849 231.904 118.796L235.873 126.733L235.155 134.933Z" fill="black"/>
<path opacity="0.1" d="M254.523 134.845L253.47 134.927V131.964L254.853 131.673C254.371 132.416 254.388 133.731 254.523 134.845Z" fill="black"/>
<path d="M223.762 113.724C223.762 113.724 222.135 114.066 221.014 116.923C220.155 119.108 217.249 121.376 215.952 122.29C215.704 122.466 215.489 122.698 215.32 122.972C215.151 123.246 215.03 123.557 214.966 123.887C214.704 125.236 214.604 127.754 216.028 131.374C218.267 137.06 219.893 139.547 219.893 139.547C219.893 139.547 220.299 145.233 219.69 146.891C219.082 148.549 219.69 157.67 219.69 157.67C219.69 157.67 230.372 160.041 233.934 157.67C237.497 155.3 236.988 146.178 236.988 146.178C236.988 146.178 240.341 154.457 241.565 154.711L240.853 150.09C240.853 150.09 236.885 145.113 236.682 138.718C236.682 138.718 235.461 132.912 236.479 131.374C236.479 131.374 240.447 136.351 244.925 136.231C248.187 136.209 251.448 136.406 254.691 136.824C254.691 136.824 253.673 133.032 254.691 131.611C254.691 131.611 243.398 131.018 241.668 127.819C241.668 127.819 236.682 123.198 236.479 120.119C236.449 119.541 236.294 118.981 236.026 118.492C235.759 118.004 235.39 117.603 234.952 117.327C234.26 116.869 233.466 116.662 232.672 116.734L230.375 116.919C230.375 116.919 234.343 125.092 234.14 126.168C233.937 127.243 234.343 135.882 234.343 135.882C234.343 135.882 229.751 124.383 227.73 123.082C225.709 121.78 223.353 116.436 223.353 116.436L223.759 113.73" fill="#C48C96"/>
<path opacity="0.1" d="M221.514 126.161C221.514 126.161 223.956 135.752 225.38 136.941C226.804 138.129 235.452 144.168 237.997 142.746C237.997 142.746 238.609 146.302 237.703 147.131C237.703 147.131 228.216 146.699 228.139 146.658C228.139 146.658 221.932 145.709 220.914 142.157C219.896 138.605 218.676 132.566 218.676 132.566L221.514 126.161Z" fill="black"/>
<path d="M234.546 137.003C234.743 137.003 234.902 136.737 234.902 136.41C234.902 136.083 234.743 135.817 234.546 135.817C234.35 135.817 234.19 136.083 234.19 136.41C234.19 136.737 234.35 137.003 234.546 137.003Z" fill="#BA7855"/>
<path d="M235.561 141.147C235.758 141.147 235.917 140.882 235.917 140.554C235.917 140.227 235.758 139.962 235.561 139.962C235.365 139.962 235.205 140.227 235.205 140.554C235.205 140.882 235.365 141.147 235.561 141.147Z" fill="#BA7855"/>
<g opacity="0.1">
<path opacity="0.1" d="M220.405 157.54C220.405 157.54 219.793 148.418 220.405 146.76C221.017 145.102 220.608 139.416 220.608 139.416C220.608 139.416 218.982 136.93 216.743 131.244C215.316 127.623 215.419 125.105 215.681 123.756C215.745 123.427 215.866 123.116 216.035 122.842C216.204 122.568 216.419 122.336 216.666 122.16C217.964 121.235 220.867 118.978 221.729 116.792C222.362 115.189 223.153 114.377 223.724 113.973L223.762 113.713C223.762 113.713 222.135 114.055 221.014 116.912C220.155 119.097 217.249 121.365 215.952 122.28C215.704 122.456 215.489 122.687 215.32 122.962C215.151 123.236 215.03 123.547 214.966 123.876C214.704 125.225 214.604 127.743 216.028 131.364C218.267 137.05 219.893 139.536 219.893 139.536C219.893 139.536 220.299 145.222 219.69 146.88C219.082 148.538 219.69 157.66 219.69 157.66C219.69 157.66 227.321 159.352 231.834 158.444C227.277 159.078 220.405 157.54 220.405 157.54Z" fill="black"/>
<path opacity="0.1" d="M234.137 126.161C233.999 126.89 234.137 131.182 234.252 133.813C234.743 134.981 235.052 135.758 235.052 135.758C235.052 135.758 234.646 127.109 234.849 126.044C235.043 125.017 231.469 117.597 231.113 116.864L230.372 116.922C230.372 116.922 234.343 125.095 234.137 126.161Z" fill="black"/>
<path opacity="0.1" d="M245.636 136.111C241.159 136.231 237.191 131.254 237.191 131.254C237.072 131.447 236.985 131.664 236.935 131.894C238.112 133.169 241.347 136.323 244.925 136.227C248.187 136.205 251.448 136.402 254.691 136.82C254.691 136.82 254.67 136.741 254.638 136.608C251.648 136.248 248.643 136.082 245.636 136.111Z" fill="black"/>
<path opacity="0.1" d="M237.694 146.062C237.694 146.062 237.735 146.801 237.711 147.911C238.771 150.357 240.697 154.539 241.559 154.707L241.409 153.734C239.93 151.569 237.694 146.062 237.694 146.062Z" fill="black"/>
</g>
<path d="M240.547 144.867L238.385 145.398L236.679 145.815L237.594 142.853L238.232 142.668L239.223 142.38C239.223 142.38 240.647 134.087 243.498 134.68C246.348 135.272 240.547 144.867 240.547 144.867Z" fill="#714B4F"/>
<path opacity="0.1" d="M238.388 145.408L236.682 145.826L237.597 142.863L238.235 142.678C238.377 143.578 238.428 144.494 238.388 145.408Z" fill="black"/>
<path d="M221.514 125.925C221.514 125.925 223.956 135.516 225.38 136.704C226.804 137.893 235.452 143.932 237.997 142.51C237.997 142.51 238.609 146.066 237.703 146.895C237.703 146.895 228.216 146.463 228.139 146.422C228.139 146.422 221.932 145.473 220.914 141.921C219.896 138.369 218.676 132.33 218.676 132.33L221.514 125.925Z" fill="#C48C96"/>
<path opacity="0.1" d="M224.574 110.524C224.574 110.524 224.368 111.453 224.091 112.802C224.655 114.045 225.554 115.037 226.649 115.625C227.745 116.213 228.977 116.365 230.154 116.056C229.91 114.84 229.963 113.611 230.678 112.658L224.574 110.524Z" fill="black"/>
<path d="M228.848 115.975C231.883 115.975 234.343 113.11 234.343 109.576C234.343 106.042 231.883 103.178 228.848 103.178C225.813 103.178 223.353 106.042 223.353 109.576C223.353 113.11 225.813 115.975 228.848 115.975Z" fill="#714B4F"/>
<path opacity="0.1" d="M233.62 107.815C234.018 107.944 234.435 107.975 234.843 107.904C235.267 107.77 235.641 107.48 235.91 107.076C236.178 106.673 236.327 106.178 236.332 105.667C236.324 105.156 236.218 104.654 236.022 104.197C235.826 103.74 235.545 103.34 235.199 103.026C234.734 102.574 234.178 102.256 233.752 101.752C233.249 101.153 232.972 100.351 232.575 99.6455C231.921 98.4787 230.951 97.5998 229.819 97.1484C228.977 96.8059 227.945 96.7785 227.298 97.4909C226.965 97.8574 226.771 98.3815 226.401 98.6932C225.862 99.1385 225.133 99.0084 224.477 99.0974C223.882 99.2026 223.319 99.4763 222.837 99.8944C222.355 100.313 221.968 100.862 221.711 101.495C221.209 102.786 221.114 104.241 221.441 105.606C221.567 106.188 221.756 106.75 221.891 107.318C222.185 108.524 222.244 109.788 222.573 110.976C222.903 112.165 223.582 113.33 224.612 113.686C224.531 112.352 224.757 111.017 225.268 109.819C225.352 109.557 225.518 109.341 225.733 109.216C225.916 109.161 226.108 109.161 226.292 109.216C227.582 109.438 228.898 109.128 230.013 108.339C230.404 108.065 231.013 107.119 231.428 107.027C231.963 106.921 233.061 107.671 233.62 107.815Z" fill="black"/>
<path d="M233.62 107.579C234.018 107.708 234.435 107.738 234.843 107.668C235.267 107.534 235.641 107.244 235.91 106.84C236.178 106.436 236.327 105.941 236.332 105.431C236.324 104.92 236.218 104.418 236.022 103.961C235.826 103.504 235.545 103.104 235.199 102.79C234.734 102.338 234.178 102.019 233.752 101.516C233.249 100.916 232.972 100.115 232.575 99.4091C231.921 98.2423 230.951 97.3635 229.819 96.9121C228.977 96.5695 227.945 96.5421 227.298 97.2546C226.965 97.6211 226.771 98.1452 226.401 98.4569C225.862 98.9022 225.133 98.772 224.477 98.8611C223.882 98.9663 223.319 99.24 222.837 99.6581C222.355 100.076 221.968 100.626 221.711 101.259C221.209 102.549 221.114 104.005 221.441 105.369C221.567 105.951 221.756 106.513 221.891 107.082C222.185 108.288 222.244 109.551 222.573 110.74C222.903 111.929 223.582 113.093 224.612 113.449C224.533 112.116 224.762 110.782 225.274 109.586C225.358 109.324 225.524 109.108 225.739 108.983C225.922 108.928 226.114 108.928 226.298 108.983C227.588 109.205 228.904 108.895 230.019 108.106C230.41 107.832 231.019 106.887 231.434 106.794C231.963 106.685 233.061 107.435 233.62 107.579Z" fill="#503F43"/>
<path d="M288.439 86.4619L283.955 144.932L263.805 151.44L243.71 144.932L239.232 86.4619H288.439Z" fill="#E44D26"/>
<path d="M263.834 146.466L280.116 141.212L283.941 91.2432H263.834V146.466Z" fill="#F16529"/>
<path d="M255.121 105.589H263.834V98.416H248.39L248.537 100.341L250.052 120.105H263.837V112.932H255.685L255.121 105.589ZM256.521 123.691H250.343L251.205 134.954L263.807 139.044H263.837V131.559H263.81L256.95 129.401L256.521 123.691Z" fill="#EBEBEB"/>
<path d="M243.813 70.5684H246.943V74.1684H249.805V70.5684H252.935V81.4746H249.805V77.8232H246.943V81.4746H243.813V70.5684ZM257.05 74.1855H254.294V70.5684H262.937V74.1855H260.18V81.4746H257.053V74.1855H257.05ZM264.311 70.5684H267.576L269.585 74.4013L271.591 70.5684H274.857V81.4746H271.738V76.0694L269.585 79.9469H269.532L267.376 76.0694V81.4746H264.311V70.5684ZM276.413 70.5684H279.543V77.8677H283.955V81.4711H276.422V70.5684H276.413Z" fill="white"/>
<path d="M263.813 120.106H271.397L270.682 129.409L263.813 131.567V139.044L276.442 134.968L276.533 133.755L277.981 114.872L278.131 112.947H263.813V120.119V120.106ZM263.813 105.572V105.589H278.693L278.816 103.976L279.11 100.338L279.257 98.4131H263.813V105.569V105.572Z" fill="white"/>
<path d="M107.882 129.627C107.308 127.672 106.481 125.175 105.822 124.606C105.783 124.569 105.739 124.538 105.693 124.513H105.611V122.099L104.063 122.386C103.815 121.513 103.627 120.619 103.501 119.711C103.651 119.885 103.84 120.003 104.047 120.051C104.254 120.1 104.468 120.075 104.663 119.982C104.637 119.934 104.616 119.882 104.593 119.831L104.663 119.797C104.42 119.296 104.291 118.731 104.29 118.156C104.303 117.631 104.375 117.111 104.505 116.608C104.781 115.495 105.249 114.453 105.511 113.337C105.678 112.616 105.757 111.871 105.746 111.124C105.754 109.859 105.506 108.609 105.022 107.476C104.902 107.15 104.714 106.864 104.475 106.644C104.258 106.503 104.034 106.376 103.804 106.263C103.421 105.962 103.09 105.579 102.831 105.133C101.732 103.575 100.261 102.432 98.6035 101.848C98.172 101.662 97.7044 101.619 97.2532 101.725C96.2148 102.067 95.8353 103.551 94.994 104.335C94.2497 105.02 93.229 105.099 92.2994 105.332C91.3451 105.521 90.4667 106.057 89.7901 106.863C89.3502 107.448 89.1104 108.202 89.1164 108.98C89.0911 109.343 89.1463 109.707 89.2766 110.038C89.4069 110.369 89.608 110.656 89.8607 110.87C90.1483 111.091 90.4741 111.234 90.8149 111.29C91.1556 111.346 91.5029 111.314 91.8317 111.196C91.5748 112.229 91.504 113.313 91.6239 114.379C91.7437 115.446 92.0515 116.472 92.5279 117.393C93.0044 118.315 93.6392 119.111 94.3926 119.734C95.1461 120.356 96.0018 120.79 96.9061 121.009L97.0885 121.386C97.6449 122.594 98.0669 123.88 98.3446 125.212C96.9208 126.154 95.3647 127.034 94.4263 127.117C94.389 127.544 94.3211 127.967 94.2233 128.381C94.004 129.42 93.5823 130.387 92.9907 131.206C91.714 132.878 85.9688 145.517 85.9688 145.517C85.9688 145.517 85.7864 146.021 85.4922 146.888C81.9239 147.398 76.1023 148.134 74.4755 147.754L68.092 140.691C68.092 140.691 66.0328 142.524 66.2093 144.75L65.0591 143.476C65.0591 143.476 58.9932 148.864 68.5715 152.382L83.1448 154.351C81.7563 159.229 80.4619 164.905 80.862 167.994H80.9826C81.2613 167.994 81.5396 167.969 81.8151 167.919L81.7886 168.467L80.3854 197.73C80.3854 197.73 80.0648 203.118 84.3744 205.536C84.3744 205.536 89.643 223.563 87.5662 225.608C87.5662 225.608 87.8133 225.759 88.2281 225.971L83.8949 230.424C83.8949 230.424 80.7031 231.352 78.9469 231.167C78.6383 231.118 78.3249 231.203 78.0667 231.406C77.8084 231.609 77.6233 231.915 77.5467 232.267C77.5467 232.305 77.5467 232.342 77.529 232.383V232.431C77.529 232.469 77.529 232.51 77.529 232.551C77.529 232.592 77.529 232.582 77.529 232.596C77.529 232.609 77.529 232.664 77.529 232.699V232.743C77.529 232.784 77.529 232.822 77.5496 232.863V232.908C77.5594 232.951 77.5712 232.993 77.5849 233.034V233.075C77.5996 233.116 77.6173 233.158 77.6349 233.199V233.226C77.6555 233.267 77.6761 233.308 77.6996 233.349L77.7202 233.384C77.7457 233.427 77.7742 233.47 77.8055 233.514L77.8291 233.548C77.8614 233.593 77.8967 233.634 77.935 233.678H77.9526L78.0703 233.795L78.0968 233.819L78.2409 233.939L78.2762 233.966L78.4439 234.079H78.4704L78.6498 234.182H78.6763L78.8851 234.281L78.9293 234.302L79.1617 234.391H79.1999L79.45 234.466H79.4706L79.7647 234.531H79.8206L80.1148 234.582H80.1707L80.509 234.62C81.165 234.678 82.0504 234.699 83.0742 234.696C83.0742 234.696 83.0742 234.726 83.0742 234.74C83.0742 234.754 83.0742 234.809 83.0742 234.843V234.887C83.0742 234.928 83.0742 234.966 83.0947 235.007V235.052C83.1046 235.095 83.1163 235.137 83.13 235.178V235.22C83.1448 235.261 83.1624 235.302 83.1801 235.343V235.37C83.2007 235.411 83.2212 235.453 83.2448 235.494L83.2654 235.528C83.2909 235.571 83.3193 235.615 83.3507 235.658L83.3742 235.692C83.4066 235.737 83.4419 235.778 83.4801 235.822H83.4948L83.6125 235.939L83.639 235.963L83.7831 236.083L83.8184 236.11L83.9832 236.223H84.0096L84.1891 236.326H84.2155L84.4244 236.425L84.4685 236.446L84.7009 236.535H84.7392L84.9892 236.61H85.0098L85.304 236.675H85.3599L85.654 236.727H85.7099L86.0482 236.764C90.199 237.138 103.446 236.021 103.446 236.021V235.977V235.922C103.578 235.202 104.213 231.02 101.954 227.927C102.022 227.845 102.086 227.759 102.148 227.67C102.148 227.67 100.383 224.139 101.351 223.025C102.319 221.912 96.6767 202.754 96.6767 202.754C96.6767 202.754 93.6438 197.178 95.4 190.858C97.1562 184.539 95.2411 177.664 95.2411 177.664C95.2411 177.664 99.4331 176.219 99.5095 170.214C99.5095 170.032 99.5095 169.844 99.5095 169.656C99.5972 169.671 99.6857 169.677 99.7743 169.676C99.8331 169.681 99.892 169.681 99.9508 169.676C99.9508 169.676 99.1536 166.33 100.11 163.915C101.066 161.5 103.143 163.73 105.058 153.879C106.443 146.751 107.661 138.554 108.232 134.563C108.466 132.91 108.346 131.214 107.882 129.627V129.627ZM71.4573 150.522L70.0012 148.912C70.4836 149.145 71.019 149.371 71.6162 149.597L77.1025 150.347C74.655 150.604 72.3692 150.748 71.4573 150.532V150.522Z" fill="url(#paint1_linear)"/>
<path d="M85.351 149.584C85.351 149.584 74.0607 151.41 71.7073 150.862L65.4356 143.922C65.4356 143.922 59.4756 149.217 68.8862 152.687L86.4483 155.061L85.351 149.584Z" fill="#FDC2CC"/>
<path opacity="0.05" d="M85.351 149.584C85.351 149.584 74.0607 151.41 71.7073 150.862L65.4356 143.922C65.4356 143.922 59.4756 149.217 68.8862 152.687L86.4483 155.061L85.351 149.584Z" fill="black"/>
<path d="M63.2499 154.191L38.8513 146.312L33.415 75.3057H93.1583L87.7162 146.302L63.2499 154.191Z" fill="#00BBF9"/>
<path d="M83.0565 141.784L87.7073 81.1152H63.2911V148.152L83.0565 141.784Z" fill="#00BBF9"/>
<path d="M45.8938 107.438L46.5645 116.145H63.3028V107.438H45.8938ZM44.5464 89.8115L45.226 98.5187H63.2999V89.8115H44.5317H44.5464ZM63.2999 130.056H63.2675L54.9366 127.435L54.4041 120.489H46.8822L47.9294 134.162L63.2499 139.126H63.2852L63.2999 130.056Z" fill="#EBEBEB"/>
<path d="M47.4764 56H56.534V60.4118H51.2624V64.8236H56.534V69.2354H47.4764V56ZM58.3608 56H67.4184V59.8364H62.135V60.6036H67.4066V69.4272H58.3461V65.3991H63.6177V64.6318H58.3461V56H58.3608ZM69.2452 56H78.3027V59.8364H73.0047V60.6036H78.2762V69.4272H69.2157V65.3991H74.4873V64.6318H69.2157V56H69.2452Z" fill="white"/>
<path d="M80.6472 107.438L81.9974 89.8115H63.2499V98.5187H73.79L73.1105 107.424H63.2499V116.132H72.4604L71.5779 127.435L63.2499 130.062V139.122L78.5821 134.173L78.6939 132.7L80.4589 109.771L80.6413 107.431L80.6472 107.438Z" fill="white"/>
<path d="M89.4312 223.714L83.942 229.372C83.942 229.372 80.8061 230.287 79.0823 230.102C77.3584 229.917 76.573 233.205 80.6502 233.572C84.7274 233.938 97.7416 232.842 97.7416 232.842C97.7416 232.842 98.9948 226.999 95.2323 223.714H89.4312Z" fill="#47465A"/>
<path opacity="0.05" d="M89.4312 223.714L83.942 229.372C83.942 229.372 80.8061 230.287 79.0823 230.102C77.3584 229.917 76.573 233.205 80.6502 233.572C84.7274 233.938 97.7416 232.842 97.7416 232.842C97.7416 232.842 98.9948 226.999 95.2323 223.714H89.4312Z" fill="black"/>
<path opacity="0.3" d="M97.9357 230.318C97.9264 230.984 97.8604 231.647 97.7386 232.298C97.7386 232.298 84.7245 233.394 80.6472 233.028C78.6851 232.853 77.8526 232 77.7055 231.185C77.5261 232.124 78.238 233.36 80.6472 233.583C84.7245 233.949 97.7386 232.853 97.7386 232.853C97.8919 232.021 97.9581 231.169 97.9357 230.318Z" fill="white"/>
<path d="M95.8559 120.204C95.8559 120.204 99.3065 125.863 98.0504 129.699C96.7943 133.536 104.637 125.681 104.637 125.681C104.637 125.681 102.128 120.547 103.384 115.066L95.8559 120.204Z" fill="#FDC2CC"/>
<path d="M94.9146 225.906L89.4312 231.565C89.4312 231.565 86.2954 232.479 84.5715 232.294C82.8477 232.109 82.0622 235.398 86.1395 235.764C90.2167 236.131 103.231 235.035 103.231 235.035C103.231 235.035 104.484 229.191 100.722 225.906H94.9146Z" fill="#47465A"/>
<path d="M96.4913 224.629C95.6735 225.804 94.5204 226.256 93.3143 226.324C90.5726 226.475 87.5544 224.629 87.5544 224.629C89.593 222.622 84.4185 204.909 84.4185 204.909C80.1854 202.536 80.4972 197.24 80.4972 197.24L81.868 168.502L82.2152 161.281L86.6072 158.178L90.0666 161.261L93.3496 164.193C93.5634 165.125 93.7013 166.08 93.7614 167.042C94.1438 173.753 89.5871 175.332 89.5871 175.332C89.5871 175.332 91.4698 182.086 89.743 188.297C88.0162 194.507 90.9962 199.984 90.9962 199.984C90.9962 199.984 96.6414 218.974 95.7029 220.07C94.7645 221.166 96.4913 224.629 96.4913 224.629Z" fill="#565171"/>
<path opacity="0.05" d="M96.4913 224.629C95.6735 225.804 94.5204 226.256 93.3143 226.324C90.5726 226.475 87.5544 224.629 87.5544 224.629C89.593 222.622 84.4185 204.909 84.4185 204.909C80.1854 202.536 80.4972 197.24 80.4972 197.24L81.868 168.502L82.2152 161.281L86.6072 158.178L90.0666 161.261L93.3496 164.193C93.5634 165.125 93.7013 166.08 93.7614 167.042C94.1438 173.753 89.5871 175.332 89.5871 175.332C89.5871 175.332 91.4698 182.086 89.743 188.297C88.0162 194.507 90.9962 199.984 90.9962 199.984C90.9962 199.984 96.6414 218.974 95.7029 220.07C94.7645 221.166 96.4913 224.629 96.4913 224.629Z" fill="black"/>
<path d="M101.972 226.817C99.3065 230.65 93.0348 226.817 93.0348 226.817C93.1611 226.682 93.2553 226.511 93.3084 226.321C94.4586 222.68 89.4282 205.272 89.4282 205.272C85.1951 202.898 84.7215 197.24 84.7215 197.24L83.6125 167.981L83.4683 164.192L90.0666 161.26L92.0934 160.359L98.8447 166.385C99.1346 167.633 99.2771 168.921 99.2683 170.214C99.183 176.109 95.0734 177.534 95.0734 177.534C95.0734 177.534 96.9561 184.289 95.2293 190.499C93.5025 196.709 96.4913 202.169 96.4913 202.169C96.4913 202.169 102.136 221.159 101.198 222.255C100.26 223.351 101.972 226.817 101.972 226.817Z" fill="#565171"/>
<path opacity="0.1" d="M99.2683 170.214C97.9122 169.988 95.1675 168.087 93.7585 167.056C93.2201 166.662 92.8759 166.398 92.8759 166.398C92.8759 166.398 91.4639 161.832 87.7015 165.302C86.4775 166.459 85.0953 167.37 83.6125 167.994C83.0461 168.228 82.462 168.399 81.868 168.505L82.2152 161.284L86.6071 158.181L90.0666 161.263L92.0934 160.363L98.8447 166.384C99.1346 167.633 99.2771 168.921 99.2683 170.214V170.214Z" fill="black"/>
<path d="M107.755 135.177C107.196 139.095 105.99 147.165 104.637 154.149C102.754 163.826 100.716 161.634 99.7772 164.008C98.8388 166.381 99.6213 169.666 99.6213 169.666C98.0534 169.848 92.8789 165.833 92.8789 165.833C92.8789 165.833 91.4669 161.267 87.7044 164.737C83.942 168.207 80.962 168.022 80.962 168.022C80.1766 161.997 85.9806 145.929 85.9806 145.929C85.9806 145.929 91.6257 133.512 92.8789 131.885C93.4604 131.081 93.8751 130.131 94.0909 129.11C94.1872 128.704 94.2541 128.29 94.2909 127.87C96.3295 127.689 101.351 123.671 101.351 123.671L105.272 122.941V125.315C105.319 125.339 105.362 125.37 105.402 125.408C106.046 125.98 106.873 128.418 107.423 130.34C107.873 131.896 107.987 133.557 107.755 135.177Z" fill="#E1A0A7"/>
<path d="M89.4312 152.324L87.4044 152.05L71.8692 149.95C62.4557 146.48 68.4185 141.185 68.4185 141.185L74.6903 148.124C76.4994 148.546 83.5978 147.563 86.7778 147.097C87.7309 146.953 88.334 146.857 88.334 146.857L89.4312 152.324Z" fill="#FDC2CC"/>
<path opacity="0.1" d="M104.637 127.675C104.637 127.675 100.56 123.842 94.4322 136.255C88.3046 148.669 86.9043 146.661 86.9043 146.661C86.9043 146.661 88.1575 152.142 87.5309 153.235C87.5309 153.235 91.764 152.868 93.332 153.235C94.8999 153.601 104.622 139.359 104.622 139.359C104.622 139.359 109.656 131.326 104.637 127.675Z" fill="black"/>
<path opacity="0.1" d="M104.481 126.945C104.481 126.945 100.404 123.112 94.288 135.526C88.1722 147.939 86.7601 145.932 86.7601 145.932C86.7601 145.932 91.6199 152.139 93.1878 152.505C94.7557 152.872 104.478 138.629 104.478 138.629C104.478 138.629 109.5 130.597 104.481 126.945Z" fill="black"/>
<path opacity="0.1" d="M87.4014 152.059C87.4661 150.706 87.0278 148.329 86.7748 147.096C87.728 146.952 88.331 146.856 88.331 146.856L89.4283 152.337L87.4014 152.059Z" fill="black"/>
<path d="M104.637 127.308C104.637 127.308 100.56 123.476 94.4322 135.892C88.3046 148.309 86.9043 146.298 86.9043 146.298C86.9043 146.298 88.1575 151.779 87.5309 152.872C87.5309 152.872 91.764 152.505 93.332 152.872C94.8999 153.238 104.622 138.996 104.622 138.996C104.622 138.996 109.656 130.96 104.637 127.308Z" fill="#E1A0A7"/>
<path opacity="0.1" d="M103.551 115.44L96.0118 120.548C96.3309 121.086 96.6255 121.644 96.8944 122.219C97.3281 122.322 97.7696 122.373 98.2122 122.373C100.221 122.373 101.154 119.917 102.369 118.263C102.281 116.948 103.204 116.913 103.551 115.44Z" fill="black"/>
<path d="M98.0504 122.016C101.688 122.016 104.637 118.583 104.637 114.347C104.637 110.111 101.688 106.678 98.0504 106.678C94.4128 106.678 91.4639 110.111 91.4639 114.347C91.4639 118.583 94.4128 122.016 98.0504 122.016Z" fill="#FDC2CC"/>
<path opacity="0.1" d="M89.7254 108.143C90.3897 107.35 91.2527 106.823 92.1906 106.636C93.1054 106.407 94.1086 106.338 94.8381 105.657C95.6647 104.886 96.0354 103.42 97.0562 103.091C97.4997 102.988 97.9591 103.031 98.3829 103.214C100.011 103.788 101.457 104.911 102.537 106.441C102.792 106.88 103.118 107.258 103.496 107.554C103.721 107.665 103.941 107.79 104.155 107.928C104.389 108.144 104.573 108.426 104.69 108.746C105.425 110.475 105.594 112.456 105.166 114.319C104.911 115.419 104.452 116.44 104.178 117.536C103.904 118.632 103.837 119.872 104.334 120.851C103.852 121.139 103.243 120.776 102.94 120.252C102.637 119.728 102.545 119.084 102.387 118.478C102.074 117.288 101.486 116.221 100.686 115.395C100.192 114.888 99.3095 114.545 98.9653 115.2C98.833 115.453 98.8418 115.779 98.7271 116.042C98.5035 116.559 97.8446 116.662 97.4239 116.385C97.0096 116.052 96.7186 115.549 96.609 114.977C95.9648 112.432 94.8616 110.832 92.5259 111.918C91.6434 112.322 90.6285 112.603 89.7901 111.918C88.7164 111 88.9312 109.181 89.7254 108.143Z" fill="black"/>
<path d="M89.7254 107.959C90.3897 107.166 91.2527 106.638 92.1906 106.452C93.1054 106.222 94.1086 106.154 94.8381 105.472C95.6647 104.701 96.0354 103.235 97.0562 102.907C97.4997 102.803 97.9591 102.846 98.3829 103.03C100.011 103.603 101.457 104.726 102.537 106.257C102.792 106.696 103.118 107.074 103.496 107.37C103.721 107.481 103.941 107.605 104.155 107.743C104.389 107.96 104.573 108.241 104.69 108.562C105.425 110.29 105.594 112.271 105.166 114.135C104.911 115.234 104.452 116.255 104.178 117.351C103.904 118.447 103.837 119.687 104.334 120.667C103.852 120.955 103.243 120.591 102.94 120.067C102.637 119.543 102.545 118.899 102.387 118.293C102.074 117.103 101.486 116.036 100.686 115.21C100.192 114.703 99.3095 114.361 98.9653 115.015C98.833 115.269 98.8418 115.594 98.7271 115.858C98.5035 116.375 97.8446 116.478 97.4239 116.2C97.0096 115.867 96.7186 115.364 96.609 114.792C95.9648 112.247 94.8616 110.648 92.5259 111.734C91.6434 112.138 90.6285 112.419 89.7901 111.734C88.7164 110.819 88.9312 109 89.7254 107.959Z" fill="#8F5A6A"/>
<path opacity="0.05" d="M105.393 125.394H102.207C102.207 125.394 95.9354 129.046 95.7794 128.864C95.6735 128.741 94.7028 128.953 94.088 129.101C94.1842 128.695 94.2511 128.28 94.288 127.861C96.3266 127.679 101.348 123.661 101.348 123.661L105.269 122.932V125.305C105.314 125.329 105.355 125.359 105.393 125.394V125.394Z" fill="black"/>
<path opacity="0.3" d="M103.422 232.507C103.413 233.173 103.347 233.836 103.225 234.487C103.225 234.487 90.2107 235.583 86.1335 235.216C84.1714 235.042 83.3389 234.189 83.1918 233.373C83.0123 234.312 83.7242 235.549 86.1335 235.771C90.2107 236.138 103.225 235.042 103.225 235.042C103.378 234.209 103.444 233.358 103.422 232.507Z" fill="white"/>
<g opacity="0.05">
<path opacity="0.05" d="M86.213 164.555C84.0979 166.508 82.227 167.296 80.9973 167.638C80.9973 167.775 81.0209 167.909 81.0385 168.039C81.0385 168.039 84.0185 168.22 87.7809 164.754C88.3639 164.172 89.053 163.753 89.796 163.528C88.9753 163.058 87.8044 163.089 86.213 164.555Z" fill="black"/>
<path opacity="0.05" d="M107.493 130.323C106.932 128.401 106.117 125.966 105.472 125.39C105.433 125.353 105.389 125.322 105.343 125.298C105.343 125.298 104.046 125.349 104.09 125.39C104.734 125.962 105.364 128.22 105.925 130.138C106.381 131.697 106.498 133.363 106.267 134.988C105.708 138.907 104.502 146.977 103.148 153.961C101.266 163.637 99.2272 161.445 98.2888 163.819C97.518 165.765 97.9034 168.32 98.0711 169.18C98.5782 169.475 99.1341 169.64 99.7008 169.663C99.7008 169.663 98.9154 166.378 99.8567 164.004C100.798 161.63 102.837 163.822 104.716 154.146C106.078 147.145 107.276 139.074 107.835 135.173C108.066 133.548 107.949 131.882 107.493 130.323V130.323Z" fill="black"/>
</g>
<path d="M125.717 164.429C126.256 163.917 126.649 163.226 126.844 162.449C126.991 161.661 126.703 160.719 126.056 160.431C125.332 160.109 124.558 160.692 123.973 161.284C123.387 161.877 122.714 162.548 121.946 162.421C122.341 162.005 122.636 161.476 122.803 160.888C122.97 160.299 123.003 159.669 122.899 159.061C122.866 158.809 122.774 158.572 122.634 158.376C122.231 157.876 121.505 158.092 121.022 158.486C119.493 159.739 119.066 162.158 119.057 164.336C118.904 163.552 119.034 162.733 119.028 161.938C119.022 161.144 118.834 160.226 118.251 159.808C117.89 159.582 117.484 159.47 117.075 159.483C116.386 159.452 115.621 159.534 115.151 160.12C114.562 160.846 114.718 162.069 115.227 162.86C115.736 163.651 116.507 164.161 117.219 164.716C117.789 165.111 118.276 165.651 118.642 166.295C118.686 166.385 118.721 166.479 118.748 166.576H123.058C124.024 166.003 124.918 165.281 125.717 164.429V164.429Z" fill="#22CA96"/>
<path d="M133.634 228.747C134.319 228.003 134.963 227.126 135.163 226.061C135.363 224.996 134.972 223.715 134.095 223.321C133.116 222.882 132.066 223.663 131.271 224.475C130.477 225.287 129.565 226.188 128.527 226.017C129.062 225.452 129.462 224.735 129.688 223.937C129.914 223.138 129.959 222.285 129.818 221.461C129.773 221.12 129.648 220.801 129.459 220.536C128.915 219.851 127.927 220.149 127.276 220.683C125.217 222.396 124.629 225.66 124.614 228.613C124.405 227.548 124.582 226.438 124.576 225.345C124.57 224.253 124.314 223.043 123.523 222.454C123.03 222.146 122.476 221.995 121.917 222.016C120.984 221.975 119.946 222.084 119.31 222.879C118.519 223.865 118.722 225.52 119.413 226.606C120.105 227.692 121.149 228.373 122.111 229.123C122.883 229.659 123.542 230.391 124.038 231.264C124.096 231.386 124.145 231.515 124.182 231.648H130.027C131.336 230.874 132.549 229.898 133.634 228.747V228.747Z" fill="#22CA96"/>
</g>
<defs>
<linearGradient id="paint0_linear" x1="236.555" y1="211.267" x2="236.555" y2="95.3029" gradientUnits="userSpaceOnUse">
<stop stop-color="#808080" stop-opacity="0.25"/>
<stop offset="0.54" stop-color="#808080" stop-opacity="0.12"/>
<stop offset="1" stop-color="#808080" stop-opacity="0.1"/>
</linearGradient>
<linearGradient id="paint1_linear" x1="17076.1" y1="105139" x2="17076.1" y2="51717.4" gradientUnits="userSpaceOnUse">
<stop stop-color="#808080" stop-opacity="0.25"/>
<stop offset="0.54" stop-color="#808080" stop-opacity="0.12"/>
<stop offset="1" stop-color="#808080" stop-opacity="0.1"/>
</linearGradient>
<clipPath id="clip0">
<rect width="303" height="250" fill="white"/>
</clipPath>
</defs>
</svg>
